<?xml version="1.0" encoding="UTF-8"?>
<svg width="1656px" height="294px" viewBox="0 0 1656 294" version="1.1" xmlns="http://www.w3.org/2000/svg" xmlns:xlink="http://www.w3.org/1999/xlink" style="background: #FFFFFF;">
    <!-- Generator: Sketch 43.2 (39069) - http://www.bohemiancoding.com/sketch -->
    <title>buildSwift</title>
    <desc>Created with Sketch.</desc>
    <defs>
        <linearGradient x1="0%" y1="49.9929369%" x2="100%" y2="49.9929369%" id="linearGradient-1">
            <stop stop-color="#22BFD8" offset="0%"></stop>
            <stop stop-color="#1DB8D4" offset="28%"></stop>
            <stop stop-color="#0FA6C9" offset="67%"></stop>
            <stop stop-color="#0091BD" offset="100%"></stop>
        </linearGradient>
        <linearGradient x1="0%" y1="50%" x2="99.9917837%" y2="50%" id="linearGradient-2">
            <stop stop-color="#008FBE" offset="0%"></stop>
            <stop stop-color="#0095C2" offset="26%"></stop>
            <stop stop-color="#00A5CC" offset="61%"></stop>
            <stop stop-color="#00C1DE" offset="100%"></stop>
            <stop stop-color="#00C1DE" offset="100%"></stop>
        </linearGradient>
    </defs>
    <g id="Page-1" stroke="none" stroke-width="1" fill="none" fill-rule="evenodd">
        <g id="buildSwift">
            <text id="buildSwiftOnARM" font-family="CourierPrimeSans-Regular, Courier Prime Sans" font-size="144" font-weight="normal" letter-spacing="1.30813956">
                <tspan x="254" y="189" fill="#15A5CB">buildSwiftOn</tspan>
                <tspan x="1305.82267" y="189" fill="#0080B0">ARM</tspan>
            </text>
            <g id="cortex-a" transform="translate(61.000000, 87.000000)">
                <polygon id="Shape" fill="url(#linearGradient-1)" fill-rule="nonzero" opacity="0.65" points="0 80.9933606 81.5 128 163 80.9933606 81.5 34"></polygon>
                <path d="M81.5,16.035447 L161.245597,61.9933625 L81.5,107.951278 L1.8208578,61.9933625 L81.5,16.035447 L81.5,16.035447 Z M81.5,15 L0,61.9933625 L81.5,109 L163,61.9933625 L81.5,15 Z" id="Shape" fill="#A7E5EF" fill-rule="nonzero"></path>
                <path d="M0.917373573,64.6299471 L81.0479608,111.123519 L81.5132953,111.390723 L81.9786297,111.123519 L162.082626,64.6299471 L162.082626,68.1837661 L81.5132953,114.931182 L0.917373573,68.1704058 L0.917373573,64.6299471 L0.917373573,64.6299471 Z M163,63.0267204 L81.5132953,110.335266 L0,63 L0,68.6380136 L81.5132953,116 L163,68.6380136 L163,63 L163,63.0267204 Z" id="Shape" fill="#FFFFFF" fill-rule="nonzero"></path>
                <polygon id="Shape" fill="url(#linearGradient-2)" fill-rule="nonzero" opacity="0.8" points="1 47 81.9933448 94 163 47 81.9933448 0"></polygon>
                <path d="M53.4075651,40.3867326 L55.7825114,39 L66,45.2541639 L63.6120046,46.6408965 L62.555023,45.9891322 C62.5762268,47.1871976 61.9173395,48.2812585 60.8847311,48.7625973 C57.5742457,50.5145539 53.6602849,50.4001714 50.4454068,48.4575162 C47.1309214,46.4190193 47.3658061,43.7703601 50.0669813,42.1201483 C51.4349657,41.3309587 52.9932586,40.9930002 54.5428416,41.1494355 L53.4075651,40.3867326 Z M52.976943,46.959845 C54.8410475,48.1040039 57.116248,48.1973974 59.0578493,47.2094568 C60.5585022,46.2942133 60.8586328,44.7688075 58.7185713,43.4652789 C56.8383533,42.2432156 54.4952877,42.1486596 52.5332717,43.215667 C50.8107832,44.2695838 51.1631104,45.8365916 52.976943,46.959845 Z" id="Shape" fill="#FFFFFF" fill-rule="nonzero"></path>
                <path d="M59,37.8211382 L61.4543568,36.4661247 L62.3983402,37.0081301 C62.3506442,36.6342832 62.4066453,36.2544631 62.560166,35.9105691 C62.8195892,35.4373314 63.220608,35.0580923 63.7064315,34.8265583 C64.4567374,34.4003519 65.2802183,34.1199453 66.1338174,34 L67.3609959,35.8834688 C66.7877938,35.932123 66.2315084,36.1030424 65.7292531,36.3848238 C65.216805,36.696477 64.7582988,37.0352304 64.7852697,37.604336 C64.7852697,38.4173442 65.8371369,38.9593496 66.5383817,39.4065041 L72,42.5772358 L69.5456432,44 L59,37.8211382 Z" id="Shape" fill="#FFFFFF" fill-rule="nonzero"></path>
                <path d="M67,33.115789 L69.4515086,31.7297304 L70.4213362,32.2789234 C70.3365792,31.3513081 70.8820021,30.4776712 71.768319,30.1213794 C73.0828386,29.4510232 74.5887183,29.2211719 76.0517241,29.4675781 C75.674569,28.2776599 76.6982759,27.3623382 77.627694,26.8523732 C79.0519757,26.105928 80.6910848,25.839197 82.2882543,26.0939638 C83.4209046,26.2964718 84.5067989,26.6950989 85.4940733,27.270806 L92,30.9190169 L89.5350216,32.2266193 L83.7429957,28.9706892 C83.0896936,28.5637346 82.376695,28.2551312 81.6282328,28.0553675 C80.8512021,27.8360328 80.0158779,27.9303239 79.3114224,28.316888 C78.7728374,28.5185934 78.4810041,29.085196 78.637931,29.6244904 C78.8130388,30.1998355 79.6616379,30.7359525 80.5506466,31.2459175 L85.9385776,34.2926312 L83.487069,35.6002336 L77.7758621,32.3966076 C77.1278378,31.9857428 76.4193424,31.6727138 75.674569,31.4682099 C74.8925247,31.2555004 74.0557104,31.3494136 73.3442888,31.7297304 C72.8101973,31.9362097 72.5205007,32.4986638 72.6707974,33.0373328 C72.8459052,33.6126779 73.6945043,34.1487949 74.5835129,34.6456838 L79.971444,37.6923976 L77.5199353,39 L67,33.115789 Z" id="Shape" fill="#FFFFFF" fill-rule="nonzero"></path>
                <path d="M73.9258893,58.5070418 C72.1632365,58.3954038 70.4015981,58.7375967 68.8358136,59.4957734 C66.2086777,60.9028145 66.3455077,63.0830944 68.9452775,64.4774594 C71.8542345,65.8543172 75.2997112,65.8543172 78.2086681,64.4774594 C79.3388968,63.9855758 80.0743073,62.9464853 80.110605,61.7901377 L81,62.2718275 C80.7550602,63.383244 79.9590002,64.3227047 78.8517691,64.8070366 C75.5110067,66.3976545 71.5471579,66.3976545 68.2063956,64.8070366 C65.2508677,63.2352069 65.2782337,60.7126738 68.2063956,59.1281681 C69.6803291,58.397796 71.3239463,58.0106051 72.9954454,58 L73.9258893,58.5070418 Z" id="Shape" fill="#FFFFFF" fill-rule="nonzero"></path>
                <path d="M85.6618076,57.7387143 C87.4460641,58.7370016 87.4460641,60.2660238 85.6618076,61.2516745 C83.6812083,62.2494418 81.3187917,62.2494418 79.3381924,61.2516745 C77.5539359,60.2660238 77.5539359,58.724365 79.3381924,57.7387143 C81.32204,56.7537619 83.67796,56.7537619 85.6618076,57.7387143 L85.6618076,57.7387143 Z M85.0451895,58.0925377 C83.4354722,57.2769289 81.5120497,57.2769289 79.9023324,58.0925377 C78.4591837,58.9012767 78.4985423,60.1396583 79.9023324,60.9483974 C81.5090973,61.7574124 83.425305,61.7574124 85.03207,60.9483974 C86.5539359,60.1143853 86.5014577,58.8760036 85.0451895,58.0672646 L85.0451895,58.0925377 Z" id="Shape" fill="#FFFFFF" fill-rule="nonzero"></path>
                <path d="M85,54.494709 L85.6237624,54.1507937 L86.4554455,54.6137566 C86.1366337,54.1772487 86.2059406,53.6746032 86.8851485,53.2910053 C87.1453747,53.1544581 87.4257876,53.0563419 87.7168317,53 L87.9663366,53.489418 C87.7554452,53.5069053 87.5515524,53.5702533 87.370297,53.6746032 C86.0950495,54.3756614 87.7861386,55.3280423 88.5762376,55.7645503 L92,57.6428571 L91.3762376,58 L85,54.494709 Z" id="Shape" fill="#FFFFFF" fill-rule="nonzero"></path>
                <polygon id="Shape" fill="#FFFFFF" fill-rule="nonzero" points="90.3901345 52.5143603 96 55.6475196 95.3946188 56 89.7847534 52.8537859 89.0986547 53.232376 88.5336323 52.9190601 89.206278 52.5274151 87 51.2219321 87.5515695 51 89.7578475 52.2402089 90.8340807 51.6396867 91.4125561 51.9660574"></polygon>
                <path d="M95.1718918,52.8410036 C96.7440376,53.6674415 98.6309138,53.6966864 100.229268,52.9193885 C101.221963,52.3576302 101.38294,51.6129739 100.967082,50.9205742 L101.771969,50.8029969 C102.107339,51.4039476 102.281731,52.4098868 100.752445,53.2721204 C98.7869109,54.2785012 96.4300574,54.2390978 94.5011522,53.1676073 C92.3547855,51.9657059 92.7303997,50.5547781 94.2462712,49.6533521 C96.2193905,48.7092439 98.5473697,48.7926664 100.443905,49.8754426 L95.1718918,52.8410036 Z M99.1963293,49.9015709 C97.7834482,49.2791546 96.1581622,49.3079328 94.769448,49.9799557 C94.1836245,50.1043062 93.7536677,50.5921411 93.7162671,51.1749095 C93.6788665,51.7576779 94.0431048,52.2938526 94.6084705,52.4882717 L99.1963293,49.9015709 Z" id="Shape" fill="#FFFFFF" fill-rule="nonzero"></path>
                <polygon id="Shape" fill="#FFFFFF" fill-rule="nonzero" points="103.350057 47.036 98 46.7 98.7525656 46.316 103.322691 46.628 102.693273 44.324 103.473204 44 104.184721 46.676 110 47.06 109.247434 47.444 104.143672 47.096 104.841505 49.616 104.08894 50"></polygon>
                <polygon id="Shape" fill="#FFFFFF" fill-rule="nonzero" points="107 45.625 110.249097 44 111 44.375 107.750903 46"></polygon>
                <path d="M116.830571,39.7217806 L112.705341,42.0620032 L114.600368,44.6057234 L113.891344,45 L108,37 L122,40.3831479 L121.303867,40.7774245 L116.830571,39.7217806 Z M116.018416,39.518283 L109.572744,37.9411765 L112.3186,41.6041335 L116.018416,39.518283 Z" id="Shape" fill="#FFFFFF" fill-rule="nonzero"></path>
                <path d="M81.493354,1.06199689 L161.165702,47.0066375 L81.493354,92.9380031 L1.8342983,47.0066375 L81.493354,1.06199689 L81.493354,1.06199689 Z M81.493354,0 L0,47.0066375 L81.493354,94 L163,47.0066375 L81.493354,0 Z" id="Shape" fill="#FFFFFF" fill-rule="nonzero"></path>
                <path d="M82,110 L82,115" id="Shape" stroke="#FFFFFF" stroke-width="0.69"></path>
            </g>
        </g>
    </g>
</svg>